# xmcd CD database file
#
# Track frame offsets:
#	150
#	31016
#	51175
#	87827
#	122980
#	148431
#	154517
#	170433
#	203625
#	225512
#	256904
#	292177
#	313018
#
# Disc length: 4304 seconds
#
# Revision: 0
# Processed by: cddbd v1.5.2PL0 Copyright (c) Steve Scherf et al.
# Submitted via: CDex 1.51
#
DISCID=b410ce0d
DTITLE=Club d'Elf - Now I Understand
DYEAR=2010
DGENRE=Jazz
TTITLE0=Intro/Bass Beatbox
TTITLE1=Hungry Ghosts
TTITLE2=Quilty
TTITLE3=Vishnu Dub
TTITLE4=A Toy For A Boy feat.Jenifer Jackson
TTITLE5=Luminous Things
TTITLE6=What Would Cthulhu Do?
TTITLE7=Now I Understand
TTITLE8=And Shadow Saw The Dogs
TTITLE9=Wetbones(Extended)
TTITLE10=Vision Of Kali
TTITLE11=A Toy For A Boy(DJ Mister Rourke Dub Mix)
TTITLE12=Just Kiddin
EXTD=YEAR: 2010
EXTT0=
EXTT1=
EXTT2=
EXTT3=
EXTT4=
EXTT5=
EXTT6=
EXTT7=
EXTT8=
EXTT9=
EXTT10=
EXTT11=
EXTT12=
PLAYORDER=
